HIERARCHY
ROOT Hips
{
  OFFSET 1.44925e-005 102.336 -0.101585
  CHANNELS 6 Xposition Yposition Zposition Zrotation Xrotation Yrotation
  JOINT LeftUpLeg
  {
    OFFSET 8.9458 -8.66707 0.101652
    CHANNELS 3 Zrotation Xrotation Yrotation
    JOINT LeftLeg
    {
      OFFSET 0 -44.4227 1.3727
      CHANNELS 3 Zrotation Xrotation Yrotation
      JOINT LeftFoot
      {
        OFFSET -0.253549 -42.0924 -1.46059
        CHANNELS 3 Zrotation Xrotation Yrotation
        JOINT LeftToes
        {
          OFFSET -0.04 -4.41509 8.4991
          CHANNELS 3 Zrotation Xrotation Yrotation
          End Site
          {
            OFFSET 0.08 -0.047448 9.77979
          }
        }
      }
    }
  }
  JOINT Spine
  {
    OFFSET 0 11.8905 0
    CHANNELS 3 Zrotation Xrotation Yrotation
    JOINT Spine1
    {
      OFFSET 0 25.6574 0.127663
      CHANNELS 3 Zrotation Xrotation Yrotation
      JOINT RightShoulder
      {
        OFFSET -8.99 -0.362252 -0.22
        CHANNELS 3 Zrotation Xrotation Yrotation
        JOINT RightArm
        {
          OFFSET -10.2827 -0.00338 0.322123
          CHANNELS 3 Zrotation Xrotation Yrotation
          JOINT RightForeArm
          {
            OFFSET -26.364 0.099144 -1.42434
            CHANNELS 3 Zrotation Xrotation Yrotation
            JOINT RightHand
            {
              OFFSET -22.0324 0.085362 1.02216
              CHANNELS 3 Zrotation Xrotation Yrotation
              End Site
              {
                OFFSET -13.3284 -0.6 1.50291
              }
            }
          }
        }
      }
      JOINT LeftShoulder1
      {
        OFFSET 8.99 -0.362252 -0.22
        CHANNELS 3 Zrotation Xrotation Yrotation
        JOINT LeftArm
        {
          OFFSET 10.2827 -0.00337999 0.322123
          CHANNELS 3 Zrotation Xrotation Yrotation
          JOINT LeftForeArm
          {
            OFFSET 26.2597 0.099144 -1.42434
            CHANNELS 3 Zrotation Xrotation Yrotation
            JOINT LeftHand
            {
              OFFSET 22.0902 0.085362 1.02216
              CHANNELS 3 Zrotation Xrotation Yrotation
              End Site
              {
                OFFSET 13.419 -0.6 1.50291
              }
            }
          }
        }
      }
      JOINT Head
      {
        OFFSET 0 8.73416 0.011341
        CHANNELS 3 Zrotation Xrotation Yrotation
        End Site
        {
          OFFSET -0.29 12.7742 2.51395
        }
      }
    }
  }
  JOINT RightUpLeg
  {
    OFFSET -8.9458 -8.66707 0.101652
    CHANNELS 3 Zrotation Xrotation Yrotation
    JOINT RightLeg
    {
      OFFSET 0 -44.4227 1.3727
      CHANNELS 3 Zrotation Xrotation Yrotation
      JOINT RightFoot
      {
        OFFSET 0.253549 -42.0924 -1.46059
        CHANNELS 3 Zrotation Xrotation Yrotation
        JOINT RightToes
        {
          OFFSET 0.04 -4.41509 8.4991
          CHANNELS 3 Zrotation Xrotation Yrotation
          End Site
          {
            OFFSET -0.08 -0.137448 9.77979
          }
        }
      }
    }
  }
}
MOTION
Frames:	15
Frame Time:	0.0333333
193.116 102.998 6.68705 -6.43443 -0.00507533 -91.4021 -0.677416 3.18355 3.03594 -0.341296 9.85497 21.9923 -1.49103 -11.2852 0.006138 -1.35115e-009 8.75232e-006 -1.472e-008 0.455298 8.61349 -0.476397 -0.308508 -0.887307 -0.311318 36.705 1.69942 -0.0245614 41.0592 -17.9501 3.81355 7.87634 38.6326 8.5095 -8.15569 9.56665 -0.237399 -43.6654 3.47758 -3.41578 -29.9018 -15.2022 -1.11735 -7.92316 41.4971 -9.56751 5.82328 9.61819 -0.917488 0.212084 -4.77523 -6.39878 -1.23132 1.9427 -4.88846 0.643793 11.507 -13.0185 3.13423 -11.699 -0.0779276 0.0462048 0.000530889 0.662642 
193.084 102.998 6.69831 -6.38643 -0.0254441 -91.3974 -0.698866 3.16757 3.01755 -0.361607 9.81076 22.0154 -1.4666 -11.2594 0.00613745 -1.35115e-009 8.75232e-006 -1.472e-008 0.423146 8.55799 -0.475124 -0.281726 -0.826795 -0.318421 36.6966 1.69942 -0.0245614 41.0971 -18.0139 3.88497 7.71065 38.7079 8.68789 -7.82626 9.60027 -0.559502 -43.6852 3.48153 -3.42064 -29.8621 -15.4718 -1.03868 -8.04579 41.7452 -9.35219 5.82328 9.61819 -0.917488 0.321415 -4.68123 -5.78803 -1.24457 1.89653 -4.87539 0.610921 11.5285 -13.0209 3.14777 -11.6983 -0.0779274 0.0462048 0.000530889 0.662642 
193.026 103 6.71324 -6.3079 -0.0412136 -91.3675 -0.708333 3.1426 3.0068 -0.393292 9.74262 22.0035 -1.4147 -11.226 0.00613674 -1.35115e-009 8.75232e-006 -1.472e-008 0.345256 8.46987 -0.464808 -0.1657 -0.714471 -0.326756 36.6303 1.69942 -0.0245614 41.2313 -17.9535 4.08463 7.57542 38.5858 8.87836 -7.62228 9.6409 -1.11726 -43.7693 3.49253 -3.42982 -29.7664 -15.739 -0.919378 -8.22428 41.9916 -9.07119 5.82328 9.61819 -0.917488 0.731796 -4.05776 -4.07916 -1.24554 1.84944 -4.85099 0.570017 11.5228 -13.0605 3.14937 -11.6898 -0.077925 0.0462048 0.000530889 0.662642 
192.974 103.007 6.71792 -6.22084 -0.0399234 -91.2977 -0.689284 3.09345 3.00901 -0.413915 9.69688 21.9298 -1.39142 -11.2012 0.00613621 -1.35115e-009 8.75232e-006 -1.472e-008 0.249553 8.35096 -0.434709 0.0050197 -0.578211 -0.328526 36.5186 1.69942 -0.0245614 41.4624 -17.7815 4.36504 7.58991 38.3586 8.92088 -7.79773 9.64906 -1.37091 -43.8978 3.50481 -3.43481 -29.6626 -15.8347 -0.873499 -8.36106 42.0495 -8.88986 5.82328 9.61819 -0.917488 1.15734 -3.03755 -2.15648 -1.23422 1.82639 -4.8394 0.56828 11.459 -13.139 3.15892 -11.6653 -0.0779181 0.0462048 0.000530889 0.662642 
192.938 103.013 6.71152 -6.13452 -0.0357021 -91.2205 -0.666191 3.01924 3.00554 -0.416727 9.68804 21.8556 -1.42536 -11.1909 0.00613599 -1.35115e-009 8.75232e-006 -1.472e-008 0.202663 8.26526 -0.395558 0.0962031 -0.516302 -0.30729 36.4444 1.69942 -0.0245614 41.6825 -17.4911 4.54701 7.54583 38.0975 9.07129 -7.91266 9.6373 -1.23854 -43.9714 3.50945 -3.43293 -29.6168 -15.8749 -0.903381 -8.40693 42.0299 -8.83511 5.82328 9.61819 -0.917488 1.36132 -2.31987 -1.03771 -1.23869 1.80273 -4.86255 0.615532 11.3849 -13.1937 3.16721 -11.6511 -0.0779141 0.0462048 0.000530889 0.662642 
192.911 103.015 6.70159 -6.06903 -0.0367295 -91.1759 -0.658382 2.95655 2.99193 -0.408889 9.70066 21.8312 -1.46916 -11.1986 0.00613616 -1.35115e-009 8.75232e-006 -1.472e-008 0.270696 8.36313 -0.369121 -0.0194736 -0.70272 -0.257588 36.5179 1.70131 -0.0243031 41.7389 -16.8542 4.47451 7.26582 37.6015 9.62025 -7.65566 9.63894 -1.10801 -43.893 3.50007 -3.42615 -29.6517 -15.926 -0.88447 -8.35408 42.0181 -8.89197 5.82328 9.61819 -0.917488 1.32755 -2.06516 -0.91052 -1.25558 1.77592 -4.89771 0.667913 11.3456 -13.1997 3.14041 -11.6579 -0.077916 0.0462048 0.000530889 0.662642 
192.886 103.016 6.69209 -6.03569 -0.0359075 -91.161 -0.656273 2.93062 2.98066 -0.398123 9.71033 21.8336 -1.47462 -11.214 0.00613649 -1.35115e-009 8.75232e-006 -1.472e-008 0.420251 8.6612 -0.370844 -0.285749 -1.14473 -0.206378 36.7329 1.71018 -0.0206424 41.6548 -15.8693 4.25926 6.91579 36.869 10.3466 -7.37079 9.65013 -1.11898 -43.6889 3.47993 -3.41691 -29.7369 -15.8552 -0.745694 -8.20282 41.892 -9.09325 5.82328 9.61819 -0.917488 1.22669 -2.50477 -1.70844 -1.24774 1.7672 -4.89183 0.67313 11.3243 -13.2164 3.10855 -11.669 -0.0779191 0.0462048 0.000530889 0.662642 
192.872 103.018 6.68111 -6.01955 -0.0288878 -91.1449 -0.647774 2.92402 2.97462 -0.383605 9.7039 21.8219 -1.46563 -11.2179 0.00613657 -1.35115e-009 8.75232e-006 -1.472e-008 0.50053 8.92554 -0.382072 -0.44543 -1.52263 -0.187806 36.8789 1.72123 -0.00724356 41.674 -15.0281 4.21077 6.78846 36.2755 10.7406 -7.45337 9.64194 -1.02776 -43.5347 3.46601 -3.41242 -29.8123 -15.545 -0.615264 -7.94784 41.5247 -9.48144 5.82328 9.61819 -0.917488 1.11984 -3.26715 -3.22459 -1.21157 1.77351 -4.84625 0.645058 11.2933 -13.2798 3.12721 -11.6666 -0.0779185 0.0462048 0.000530889 0.662642 
192.871 103.019 6.66847 -6.00309 -0.0264289 -91.1111 -0.644617 2.9129 2.95921 -0.360396 9.68557 21.798 -1.48334 -11.2063 0.00591596 -1.35115e-009 8.75232e-006 -1.472e-008 0.403517 8.93034 -0.36885 -0.312649 -1.49243 -0.203326 36.7369 1.72378 0.0108368 41.9703 -14.6582 4.45683 6.88249 35.9773 10.7365 -7.67288 9.62112 -0.808081 -43.6014 3.47556 -3.42137 -29.8012 -15.1173 -0.68328 -7.64937 40.9938 -9.96179 5.82328 9.61819 -0.917488 1.0901 -3.88988 -4.48719 -1.19818 1.77203 -4.83634 0.653433 11.2688 -13.3314 3.16226 -11.6581 -0.0779161 0.0462048 0.000530889 0.662642 
192.872 103.02 6.65809 -5.98542 -0.0388362 -91.0648 -0.663416 2.89629 2.92427 -0.328597 9.6673 21.7837 -1.51219 -11.1943 0.00503833 -1.35115e-009 8.75232e-006 -1.472e-008 0.214406 8.76484 -0.336971 -0.0245879 -1.15978 -0.230625 36.3874 1.71598 0.0239357 42.3918 -14.4413 4.77577 6.92289 35.7197 10.7644 -7.59105 9.61974 -0.728048 -43.8378 3.50206 -3.43839 -29.69 -14.7691 -0.929649 -7.42839 40.4422 -10.3466 5.82328 9.61819 -0.917488 1.16208 -3.88795 -4.35735 -1.23913 1.76014 -4.90489 0.724232 11.2675 -13.3205 3.14132 -11.6691 -0.0779192 0.0462048 0.000530889 0.662642 
192.876 103.021 6.65328 -5.96504 -0.0585223 -91.0169 -0.69537 2.87455 2.8794 -0.295942 9.65552 21.7814 -1.51852 -11.1927 0.00426078 -1.35115e-009 8.75232e-006 -1.472e-008 0.103176 8.70985 -0.325881 0.131344 -0.984926 -0.25268 36.1528 1.7101 0.0273557 42.6262 -14.0772 4.89937 6.77536 35.4605 11.0385 -7.29677 9.63605 -0.810913 -43.9951 3.51867 -3.44754 -29.6047 -14.4397 -1.12024 -7.29264 39.8582 -10.6336 5.82328 9.61819 -0.917488 1.20275 -3.36511 -3.17692 -1.29527 1.74629 -4.99046 0.799934 11.268 -13.2947 3.09494 -11.7067 -0.0779298 0.0462048 0.000530889 0.662642 
192.879 103.021 6.65344 -5.93819 -0.0684845 -90.973 -0.714584 2.84207 2.84455 -0.272414 9.65552 21.7734 -1.51703 -11.2033 0.00359478 -1.35115e-009 8.75232e-006 -1.472e-008 0.101724 8.84704 -0.346244 0.0960964 -1.14499 -0.267944 36.2022 1.70966 0.0223122 42.5802 -13.8252 4.85379 6.60362 35.471 11.2737 -7.20782 9.64153 -0.83042 -43.9405 3.51383 -3.44662 -29.6664 -13.8692 -1.12463 -7.0822 39.163 -11.0482 5.82328 9.61819 -0.917488 1.17216 -3.15725 -2.49139 -1.31182 1.72784 -5.01354 0.823018 11.2651 -13.3241 3.10476 -11.7381 -0.0779386 0.0462048 0.000530889 0.662642 
192.878 103.019 6.656 -5.92154 -0.0659794 -90.9362 -0.712415 2.80989 2.83355 -0.264915 9.68574 21.745 -1.53897 -11.2357 0.00300416 -1.35115e-009 8.75232e-006 -1.472e-008 0.0988248 8.97356 -0.364226 0.0579142 -1.29105 -0.279936 36.3714 1.70758 0.0153877 42.4291 -13.922 4.8555 6.59137 35.6703 11.2344 -7.405 9.63426 -0.817026 -43.8614 3.5074 -3.44751 -29.7553 -12.9879 -1.0953 -6.71592 38.3876 -11.685 5.82328 9.61819 -0.917488 1.0613 -3.61367 -2.95417 -1.28873 1.71124 -4.97797 0.794111 11.2659 -13.4007 3.1534 -11.7409 -0.0779394 0.0462048 0.000530889 0.662642 
192.871 103.013 6.66127 -5.93104 -0.0630761 -90.924 -0.703399 2.7893 2.84781 -0.275207 9.76506 21.7124 -1.57059 -11.2997 0.00245266 -1.35115e-009 8.75232e-006 -1.472e-008 0.0413583 8.93278 -0.354123 0.110086 -1.12291 -0.281478 36.4276 1.7049 0.0135448 42.3559 -14.0783 4.96662 6.70547 35.6193 11.0833 -7.60972 9.63277 -0.972985 -43.9963 3.51765 -3.44526 -29.6341 -12.0619 -1.20757 -6.34631 37.6798 -12.314 5.82328 9.61819 -0.917488 0.731183 -4.50207 -3.85477 -1.26204 1.70939 -4.93169 0.74912 11.3006 -13.4659 3.17649 -11.758 -0.0779443 0.0462048 0.000530889 0.662642 
192.853 103.001 6.66781 -5.93792 -0.0600299 -90.967 -0.694237 2.75788 2.87992 -0.29781 9.87974 21.7215 -1.57826 -11.3825 0.00190381 -1.35115e-009 8.75232e-006 -1.472e-008 0.00210658 8.85451 -0.327874 0.14183 -0.899119 -0.263739 36.3448 1.70212 0.0202284 42.3853 -14.0848 5.03581 6.81782 35.3821 10.9906 -7.6781 9.64164 -1.16896 -44.2662 3.53281 -3.43499 -29.3424 -11.4141 -1.36971 -6.16138 37.1786 -12.6685 5.82328 9.61819 -0.917488 0.182292 -5.57074 -4.59151 -1.24421 1.69733 -4.88525 0.705521 11.3582 -13.4783 3.19929 -11.8335 -0.0779657 0.0462048 0.000530889 0.662642 
